# xmcd
# 
# Track frame offsets:
#     150
#     24858
#     53485
#     72558
#     84948
#     120578
#     134733
#     167608
# 
# Disc length: 2846
# 
# Revision: 1
# Processed by: cddbd v1.5.2PL0 Copyright (c) Steve Scherf et al.
# Submitted via: BonkEnc v1.0.8
# 
DISCID=610b1c08
DTITLE=Richie Beirach - Self Portraits
DYEAR=1990
DGENRE=Contemporary Jazz
TTITLE0=Grandfather`s Hammer
TTITLE1=Song Of Experience
TTITLE2=A Quiet, Normal Life
TTITLE3=Song Of Innocence
TTITLE4=Darkness Into Air
TTITLE5=Falling Off My Bike
TTITLE6=Calcutta
TTITLE7=Apprentice - Master
EXTD=YEAR: 1992
EXTT0=
EXTT1=
EXTT2=
EXTT3=
EXTT4=
EXTT5=
EXTT6=
EXTT7=
PLAYORDER=
